Coordinates
version=1
nRows=13
nColumns=26
inDegrees=yes

Units are S.I. units (second, meters, Newtons, ...)
Angles are in degrees.

endheader
time	pelvis_tilt	pelvis_list	pelvis_rotation	pelvis_tx	pelvis_ty	pelvis_tz	hip_flexion_r	hip_adduction_r	hip_rotation_r	knee_angle_r	knee_angle_r_beta	ankle_angle_r	subtalar_angle_r	mtp_angle_r	hip_flexion_l	hip_adduction_l	hip_rotation_l	knee_angle_l	knee_angle_l_beta	ankle_angle_l	subtalar_angle_l	mtp_angle_l	lumbar_extension	lumbar_bending	lumbar_rotation
    209.38571430	    -10.83998393	     -9.54898991	     -8.26756628	      0.25031673	      0.95206091	      0.17707997	     24.24615405	     14.32842348	      1.35105628	     46.33834266	     46.33834266	     18.96246521	    -18.64752492	      0.00000000	     40.16740930	    -11.47885657	      9.64176463	    115.03766298	    115.03766298	     -4.64558437	    -12.82070325	      0.00000000	     -9.10753326	     11.77124741	      9.18123650
    209.39571430	    -10.37669410	     -9.27054760	     -7.78007632	      0.25083563	      0.95779125	      0.17620364	     20.30448523	     13.58380938	      1.95326519	     43.91664556	     43.91664556	     18.91179749	    -17.76679560	      0.00000000	     42.39453398	    -10.45012561	     10.14383506	    113.48196126	    113.48196126	     -4.81208201	    -14.09333926	      0.00000000	     -9.27707589	     11.23110577	      9.90466580
    209.40571430	    -10.09849190	     -8.57759064	     -7.37381611	      0.25171839	      0.96438142	      0.17560497	     16.47616730	     12.50539462	      2.78685836	     41.12009782	     41.12009782	     17.96415035	    -17.18905109	      0.00000000	     44.42091694	     -9.16562465	     10.01253241	    111.22784752	    111.22784752	     -5.02016997	    -16.27032852	      0.00000000	     -9.14448595	     10.15656143	     10.93131114
    209.41571430	    -10.10398930	     -7.56498239	     -7.04699958	      0.25310611	      0.97156128	      0.17507163	     12.91200838	     11.09245522	      3.55095152	     38.04349260	     38.04349260	     16.20555783	    -16.63868468	      0.00000000	     46.34988539	     -7.73717587	      9.39213527	    108.31472852	    108.31472852	     -5.41403078	    -19.11262568	      0.00000000	     -8.59445183	      8.72428979	     12.05048645
    209.42571430	    -10.29296312	     -6.32015247	     -6.77726007	      0.25507509	      0.97933043	      0.17457834	      9.49886014	      9.41511873	      4.24863137	     34.63146329	     34.63146329	     13.61547788	    -16.23790681	      0.00000000	     48.07081919	     -6.26578924	      8.43166871	    104.82140069	    104.82140069	     -5.99642367	    -21.96482240	      0.00000000	     -7.74894560	      7.03243854	     13.16163539
    209.43571430	    -10.64239057	     -4.90413296	     -6.50130845	      0.25761961	      0.98744819	      0.17393137	      6.23570538	      7.51512634	      4.72069330	     30.91186941	     30.91186941	     10.30419931	    -15.86187377	      0.00000000	     49.57331606	     -4.74151427	      7.26313626	    100.77382407	    100.77382407	     -6.73126655	    -24.92496020	      0.00000000	     -6.65308423	      5.17357304	     14.25088965
    209.44571430	    -11.05811884	     -3.40335323	     -6.21620103	      0.26077715	      0.99570107	      0.17319101	      3.09093650	      5.46094319	      4.75196706	     26.99864208	     26.99864208	      6.43368426	    -14.72300274	      0.00000000	     50.76835470	     -3.23591221	      6.02817298	     96.23895479	     96.23895479	     -7.52715499	    -27.43273786	      0.00000000	     -5.43359299	      3.22036413	     15.26586664
    209.45571430	    -11.56249419	     -1.77677620	     -5.91816510	      0.26442166	      1.00372678	      0.17228177	      0.19310936	      3.24245573	      4.33126289	     23.09999472	     23.09999472	      1.93536315	    -13.23403509	      0.00000000	     51.70446940	     -1.70103367	      4.74648042	     91.24447835	     91.24447835	     -8.02746171	    -29.14629261	      0.00000000	     -4.08413154	      1.11296233	     16.16032394
    209.46571430	    -12.14268057	      0.05502239	     -5.58466648	      0.26816001	      1.01134238	      0.17118811	     -2.34650105	      0.80674856	      3.31580413	     19.47975736	     19.47975736	     -2.94241754	    -11.65919192	      0.00000000	     52.43012707	     -0.02469103	      3.41470996	     85.76278483	     85.76278483	     -8.45257873	    -30.10006290	      0.00000000	     -2.64811816	     -1.23058636	     16.94153340
    209.47571430	    -12.70730164	      1.83878763	     -5.21827876	      0.27194623	      1.01859041	      0.17003451	     -4.63434119	     -1.58804371	      1.41157823	     16.19115486	     16.19115486	     -8.14038514	     -9.55391200	      0.00000000	     52.81185159	      1.59844525	      2.26623130	     79.84131544	     79.84131544	     -8.88256051	    -30.63268459	      0.00000000	     -1.24478705	     -3.47862500	     17.77923306
    209.48571430	    -13.28950190	      3.33661812	     -4.71693594	      0.27591843	      1.02533074	      0.16882335	     -6.79225557	     -3.57177714	     -1.05216975	     13.07989882	     13.07989882	    -13.41120689	     -7.35685740	      0.00000000	     52.87387805	      3.09618051	      1.60574234	     73.50272155	     73.50272155	     -9.14737348	    -30.53020292	      0.00000000	      0.16504350	     -5.40316880	     18.49298212
    209.49571430	    -14.49849671	      3.72778750	     -4.45728718	      0.27927357	      1.03042234	      0.16841388	     -7.95046805	     -4.21046895	     -3.21558537	     10.61165209	     10.61165209	    -17.98612905	     -5.33966682	      0.00000000	     53.36988038	      3.36710593	      1.70899455	     67.10010258	     67.10010258	     -8.99146895	    -29.68079246	      0.00000000	      2.15249458	     -6.05163964	     19.69031085
    209.50571430	    -14.23671056	      4.77480938	     -3.73819459	      0.28383168	      1.03705440	      0.16709726	    -10.60569122	     -5.47441315	     -5.85244062	      8.61992474	      8.61992474	    -21.76669321	     -4.60548785	      0.00000000	     51.75627163	      4.77240352	      1.86803105	     59.84409265	     59.84409265	     -8.98052328	    -29.00596004	      0.00000000	      2.39017609	     -7.65586460	     19.52345988
